<?xml version="1.0" encoding="UTF-8" standalone="no"?>
<!-- Created with Inkscape (http://www.inkscape.org/) -->

<svg
   width="32"
   height="32"
   viewBox="0 0 8.4666662 8.4666662"
   version="1.1"
   id="svg1"
   xmlns:inkscape="http://www.inkscape.org/namespaces/inkscape"
   xmlns:sodipodi="http://sodipodi.sourceforge.net/DTD/sodipodi-0.dtd"
   xmlns="http://www.w3.org/2000/svg"
   xmlns:svg="http://www.w3.org/2000/svg">
  <sodipodi:namedview
     id="namedview1"
     pagecolor="#ffffff"
     bordercolor="#111111"
     borderopacity="1"
     inkscape:showpageshadow="0"
     inkscape:pageopacity="0"
     inkscape:pagecheckerboard="1"
     inkscape:deskcolor="#d1d1d1"
     inkscape:document-units="px"
     showguides="true" />
  <defs
     id="defs1" />
  <g
     inkscape:label="Capa 1"
     inkscape:groupmode="layer"
     id="layer1">
    <g
       id="g3"
       transform="scale(1.3333333)"
       style="stroke-width:0.75">
      <rect
         style="fill:#ffffff;fill-opacity:1;stroke:none;stroke-width:0.198437;stroke-linecap:round;stroke-linejoin:round"
         id="rect1"
         width="6.3499994"
         height="6.3499994"
         x="0"
         y="0" />
      <g
         style="fill:#000000;stroke-width:0.75"
         id="g12"
         transform="scale(0.26458333)">
        <rect
           fill="none"
           height="24"
           width="24"
           id="rect1-42"
           x="0"
           y="0"
           style="stroke-width:0.75" />
        <path
           d="M 12,2 C 6.67,6.55 4,10.48 4,13.8 4,18.78 7.8,22 12,22 16.2,22 20,18.78 20,13.8 20,10.48 17.33,6.55 12,2 Z M 7.83,14 c 0.37,0 0.67,0.26 0.74,0.62 0.41,2.22 2.28,2.98 3.64,2.87 0.43,-0.02 0.79,0.32 0.79,0.75 0,0.4 -0.32,0.73 -0.72,0.75 C 10.15,19.12 7.66,17.9 7.09,14.87 7.01,14.42 7.37,14 7.83,14 Z"
           id="path1-7"
           style="stroke-width:0.75" />
      </g>
    </g>
  </g>
</svg>
