<?xml version="1.0" encoding="UTF-8" standalone="no"?>
<!-- Created with Inkscape (http://www.inkscape.org/) -->

<svg
   width="32"
   height="32"
   viewBox="0 0 8.4666662 8.4666662"
   version="1.1"
   id="svg1"
   xmlns:inkscape="http://www.inkscape.org/namespaces/inkscape"
   xmlns:sodipodi="http://sodipodi.sourceforge.net/DTD/sodipodi-0.dtd"
   xmlns="http://www.w3.org/2000/svg"
   xmlns:svg="http://www.w3.org/2000/svg">
  <sodipodi:namedview
     id="namedview1"
     pagecolor="#ffffff"
     bordercolor="#111111"
     borderopacity="1"
     inkscape:showpageshadow="0"
     inkscape:pageopacity="0"
     inkscape:pagecheckerboard="1"
     inkscape:deskcolor="#d1d1d1"
     inkscape:document-units="px"
     showguides="true" />
  <defs
     id="defs1" />
  <g
     inkscape:label="Capa 1"
     inkscape:groupmode="layer"
     id="layer1">
    <g
       id="g3"
       transform="scale(1.3333334)"
       style="stroke-width:0.75">
      <rect
         style="fill:#000000;fill-opacity:1;stroke:none;stroke-width:0.198437;stroke-linecap:round;stroke-linejoin:round"
         id="rect1"
         width="6.3499994"
         height="6.3499994"
         x="0"
         y="0" />
      <path
         d="m 2.8045912,5.8208282 c -0.2248953,0 -0.395772,-0.067248 -0.51263,-0.201745 -0.1168573,-0.1344967 -0.175286,-0.2877347 -0.175286,-0.459714 0,-0.1146527 0.025357,-0.225998 0.07607,-0.334036 0.050713,-0.108038 0.1289857,-0.197335 0.234817,-0.267891 0.097014,-0.061733 0.1752867,-0.1411083 0.234818,-0.238125 0.059533,-0.097014 0.1003233,-0.2006423 0.12237,-0.310885 l -0.07938,-0.03969 c -0.02646,-0.013227 -0.050713,-0.02866 -0.07276,-0.0463 l -0.608542,0.218282 c -0.074965,0.02646 -0.1477257,0.04851 -0.218281,0.06615 -0.070555,0.01764 -0.1433157,0.02646 -0.218281,0.02646 -0.2778127,0 -0.5236547,-0.1212673 -0.73752599,-0.363802 -0.21387133,-0.2425353 -0.320807,-0.597518 -0.320807,-1.064948 0,-0.224896 0.067248,-0.395773 0.201744,-0.512631 0.13449667,-0.1168573 0.28552969,-0.175286 0.45309899,-0.175286 0.1146527,0 0.2271007,0.025357 0.337344,0.07607 0.1102433,0.050713 0.2006427,0.128986 0.271198,0.234818 0.061733,0.097014 0.1411083,0.1752863 0.238125,0.234817 0.097014,0.059533 0.2006423,0.1003233 0.310885,0.12237 l 0.03969,-0.07938 c 0.013227,-0.02646 0.02866,-0.050713 0.0463,-0.07276 l -0.218281,-0.608541 c -0.02646,-0.074965 -0.04851,-0.1477257 -0.06615,-0.218281 -0.01764,-0.070556 -0.02646,-0.1411117 -0.02646,-0.211667 0,-0.282222 0.1212673,-0.530269 0.363802,-0.74414099 0.2425347,-0.21387133 0.5975173,-0.320807 1.064948,-0.320807 0.224896,0 0.3957727,0.0672483 0.51263,0.201745 0.1168573,0.13449667 0.175286,0.28552969 0.175286,0.45309899 0,0.1146527 -0.025357,0.2271007 -0.07607,0.337344 -0.050713,0.1102427 -0.1289857,0.200642 -0.234817,0.271198 -0.097014,0.061733 -0.1752867,0.1411083 -0.234818,0.238125 -0.059533,0.097013 -0.1003233,0.2006417 -0.12237,0.310885 l 0.07937,0.03969 c 0.02646,0.013227 0.050713,0.02866 0.07276,0.0463 l 0.608542,-0.224896 c 0.074965,-0.02646 0.1466233,-0.047407 0.214974,-0.06284 0.068351,-0.015433 0.1400087,-0.02315 0.214974,-0.02315 0.3571873,0 0.6239753,0.1477257 0.800364,0.443177 0.1763893,0.2954513 0.264584,0.6239757 0.264584,0.985573 0,0.224896 -0.070556,0.3957727 -0.211667,0.51263 -0.1411113,0.116858 -0.2976563,0.175287 -0.469635,0.175287 -0.1102433,0 -0.2171793,-0.025357 -0.320808,-0.07607 -0.103628,-0.050713 -0.19072,-0.128986 -0.261276,-0.234818 C 4.4957069,3.8254302 4.4163319,3.7471579 4.3193152,3.6876272 4.2223019,3.6280939 4.1186735,3.5873035 4.0084302,3.5652562 l -0.03969,0.07938 c -0.013227,0.02646 -0.02866,0.050713 -0.0463,0.07276 l 0.218282,0.608542 c 0.02646,0.070555 0.04851,0.1378037 0.06615,0.201745 0.01764,0.06394 0.02646,0.131188 0.02646,0.201744 0.0044,0.286632 -0.1146627,0.5401913 -0.357188,0.760678 -0.242534,0.220486 -0.5997213,0.330729 -1.071562,0.330729 z m 0.370417,-2.248959 c 0.1102433,0 0.20395,-0.038585 0.28112,-0.115755 0.07717,-0.07717 0.115755,-0.1708767 0.115755,-0.28112 0,-0.1102427 -0.038585,-0.203949 -0.115755,-0.281119 -0.07717,-0.077171 -0.1708767,-0.115756 -0.28112,-0.115756 -0.1102433,0 -0.20395,0.038585 -0.28112,0.115756 -0.07717,0.07717 -0.115755,0.1708763 -0.115755,0.281119 0,0.1102433 0.038585,0.20395 0.115755,0.28112 0.07717,0.07717 0.1708767,0.115755 0.28112,0.115755 z"
         id="path13"
         style="fill:#ffffff;stroke-width:0.00496093"
         sodipodi:nodetypes="csssccccccsssscssccccccsssssssccccccsssssssccccccsccccsssssssss" />
    </g>
  </g>
</svg>
