<?xml version="1.0" encoding="UTF-8" standalone="no"?>
<!-- Created with Inkscape (http://www.inkscape.org/) -->

<svg
   width="32"
   height="32"
   viewBox="0 0 8.4666662 8.4666662"
   version="1.1"
   id="svg1"
   xmlns:inkscape="http://www.inkscape.org/namespaces/inkscape"
   xmlns:sodipodi="http://sodipodi.sourceforge.net/DTD/sodipodi-0.dtd"
   xmlns="http://www.w3.org/2000/svg"
   xmlns:svg="http://www.w3.org/2000/svg">
  <sodipodi:namedview
     id="namedview1"
     pagecolor="#ffffff"
     bordercolor="#111111"
     borderopacity="1"
     inkscape:showpageshadow="0"
     inkscape:pageopacity="0"
     inkscape:pagecheckerboard="1"
     inkscape:deskcolor="#d1d1d1"
     inkscape:document-units="px"
     showguides="true">
    <sodipodi:guide
       position="9.9748344,7.4083329"
       orientation="0,1"
       id="guide1"
       inkscape:locked="false"
       inkscape:label=""
       inkscape:color="rgb(0,134,229)" />
    <sodipodi:guide
       position="11.086894,3.1749998"
       orientation="0,1"
       id="guide2"
       inkscape:locked="false"
       inkscape:label=""
       inkscape:color="rgb(0,134,229)" />
  </sodipodi:namedview>
  <defs
     id="defs1" />
  <g
     inkscape:label="Capa 1"
     inkscape:groupmode="layer"
     id="layer1">
    <g
       id="g3"
       transform="scale(1.3333333)"
       style="stroke-width:0.75">
      <g
         id="g2"
         style="stroke-width:0.75">
        <rect
           style="fill:#000000;fill-opacity:1;stroke:none;stroke-width:0.198437;stroke-linecap:round;stroke-linejoin:round"
           id="rect1"
           width="6.3499994"
           height="6.3499994"
           x="0"
           y="0"
           inkscape:export-filename="grass24.png"
           inkscape:export-xdpi="96"
           inkscape:export-ydpi="96" />
      </g>
      <g
         style="fill:#ffffff;stroke-width:0.75"
         id="g5"
         transform="scale(0.26458333)">
        <rect
           fill="none"
           height="24"
           width="24"
           id="rect1-8"
           x="0"
           y="0"
           style="stroke-width:0.75" />
        <path
           d="M 12,20 H 2 v -2 h 5.75 v 0 C 7.02,15.19 4.81,12.99 2,12.26 2.64,12.1 3.31,12 4,12 c 4.42,0 8,3.58 8,8 z M 22,12.26 C 21.36,12.1 20.69,12 20,12 c -2.93,0 -5.48,1.58 -6.88,3.93 0.29,0.66 0.53,1.35 0.67,2.07 0.13,0.65 0.2,1.32 0.2,2 h 2 6 v -2 h -5.75 c 0.74,-2.81 2.95,-5.01 5.76,-5.74 z m -6.36,-1.24 c 0.78,-2.09 2.23,-3.84 4.09,-5 C 15.44,6.16 12,9.67 12,14 c 0,0.01 0,0.02 0,0.02 0.95,-1.27 2.2,-2.3 3.64,-3 z M 11.42,8.85 C 10.58,6.66 8.88,4.89 6.7,4 8.14,5.86 9,8.18 9,10.71 c 0,0.21 -0.03,0.41 -0.04,0.61 0.43,0.24 0.83,0.52 1.22,0.82 0.21,-1.18 0.65,-2.29 1.24,-3.29 z"
           id="path1-81"
           style="stroke-width:0.75" />
      </g>
    </g>
  </g>
</svg>
