<?xml version="1.0" encoding="UTF-8" standalone="no"?>
<!-- Created with Inkscape (http://www.inkscape.org/) -->

<svg
   width="32"
   height="32"
   viewBox="0 0 8.4666662 8.4666662"
   version="1.1"
   id="svg1"
   xmlns:inkscape="http://www.inkscape.org/namespaces/inkscape"
   xmlns:sodipodi="http://sodipodi.sourceforge.net/DTD/sodipodi-0.dtd"
   xmlns="http://www.w3.org/2000/svg"
   xmlns:svg="http://www.w3.org/2000/svg">
  <sodipodi:namedview
     id="namedview1"
     pagecolor="#ffffff"
     bordercolor="#111111"
     borderopacity="1"
     inkscape:showpageshadow="0"
     inkscape:pageopacity="0"
     inkscape:pagecheckerboard="1"
     inkscape:deskcolor="#d1d1d1"
     inkscape:document-units="px"
     showguides="true" />
  <defs
     id="defs1" />
  <g
     inkscape:label="Capa 1"
     inkscape:groupmode="layer"
     id="layer1">
    <g
       id="g3"
       transform="scale(1.3333334)"
       style="stroke-width:0.75">
      <rect
         style="fill:#000000;fill-opacity:1;stroke:none;stroke-width:0.198437;stroke-linecap:round;stroke-linejoin:round"
         id="rect1"
         width="6.3499994"
         height="6.3499994"
         x="0"
         y="0" />
      <path
         d="M 0.79374721,4.4979162 H 1.8785382 q -0.112447,-0.112448 -0.208359,-0.244739 -0.09591,-0.132292 -0.168672,-0.284427 H 0.79374721 Z m 2.38124999,0 q 0.54901,0 0.935963,-0.386953 0.386953,-0.386953 0.386953,-0.935963 0,-0.549011 -0.386953,-0.935964 -0.386953,-0.386953 -0.935963,-0.386953 -0.549011,0 -0.935964,0.386953 -0.386953,0.386953 -0.386953,0.935964 0,0.54901 0.386953,0.935963 0.386953,0.386953 0.935964,0.386953 z m 1.673489,-2.116666 h 0.707761 v -0.529167 h -1.084792 q 0.112448,0.112448 0.20836,0.24474 0.09591,0.132291 0.168671,0.284427 z m -4.58390599,2.910416 v -2.116666 h 0.529167 v 0.264583 H 1.3427572 q -0.01323,-0.06615 -0.01654,-0.128984 -0.0033,-0.06284 -0.0033,-0.135599 0,-0.773907 0.539089,-1.312995 0.539091,-0.539089 1.312997,-0.539089 h 2.38125 v -0.264583 h 0.529166 v 2.116667 h -0.529166 v -0.264584 h -0.549011 q 0.01323,0.06615 0.01654,0.128985 0.0033,0.06284 0.0033,0.135599 0,0.773906 -0.539088,1.312994 -0.539091,0.539089 -1.312997,0.539089 H 0.79374721 v 0.264583 z m 0.529167,-0.79375 V 3.9687502 Z M 5.5562472,2.3812502 v -0.529167 z m -2.38125,0.79375 z m 0,0.79375 q -0.218281,0 -0.373724,-0.155443 -0.155443,-0.155443 -0.155443,-0.373724 0,-0.152135 0.06284,-0.300964 0.06284,-0.148828 0.241432,-0.42664 l 0.224897,-0.330729 0.224896,0.330729 q 0.178593,0.277812 0.241432,0.42664 0.06284,0.148829 0.06284,0.300964 0,0.218281 -0.155443,0.373724 -0.155443,0.155443 -0.373724,0.155443 z"
         id="path14"
         style="fill:#ffffff;stroke-width:0.00496093" />
    </g>
  </g>
</svg>
