<?xml version="1.0" encoding="UTF-8" standalone="no"?>
<!-- Created with Inkscape (http://www.inkscape.org/) -->

<svg
   width="32"
   height="32"
   viewBox="0 0 8.4666662 8.4666662"
   version="1.1"
   id="svg1"
   xmlns:inkscape="http://www.inkscape.org/namespaces/inkscape"
   xmlns:sodipodi="http://sodipodi.sourceforge.net/DTD/sodipodi-0.dtd"
   xmlns="http://www.w3.org/2000/svg"
   xmlns:svg="http://www.w3.org/2000/svg">
  <sodipodi:namedview
     id="namedview1"
     pagecolor="#ffffff"
     bordercolor="#111111"
     borderopacity="1"
     inkscape:showpageshadow="0"
     inkscape:pageopacity="0"
     inkscape:pagecheckerboard="1"
     inkscape:deskcolor="#d1d1d1"
     inkscape:document-units="px"
     showguides="true" />
  <defs
     id="defs1" />
  <g
     inkscape:label="Capa 1"
     inkscape:groupmode="layer"
     id="layer1">
    <g
       id="g3"
       transform="scale(1.3333334)"
       style="stroke-width:0.75">
      <rect
         style="fill:#000000;fill-opacity:1;stroke:none;stroke-width:0.198437;stroke-linecap:round;stroke-linejoin:round"
         id="rect1"
         width="6.3499994"
         height="6.3499994"
         x="0"
         y="0" />
      <path
         d="m 3.1749992,3.1750022 q -0.112447,0 -0.188515,-0.07607 -0.07607,-0.07607 -0.07607,-0.188516 0,-0.112448 0.07607,-0.188515 0.07607,-0.07607 0.188515,-0.07607 0.112448,0 0.188516,0.07607 0.07607,0.07607 0.07607,0.188515 0,0.112448 -0.07607,0.188516 -0.07607,0.07607 -0.188516,0.07607 z m 0,-1.058333 q -0.112447,0 -0.188515,-0.07607 -0.07607,-0.07607 -0.07607,-0.188516 0,-0.112448 0.07607,-0.188516 0.07607,-0.07607 0.188515,-0.07607 0.112448,0 0.188516,0.07607 0.07607,0.07607 0.07607,0.188516 0,0.112448 -0.07607,0.188516 -0.07607,0.07607 -0.188516,0.07607 z m 0,-1.058334 q -0.112447,0 -0.188515,-0.07607 -0.07607,-0.07607 -0.07607,-0.188515 0,-0.112448 0.07607,-0.188516 0.07607,-0.07607 0.188515,-0.07607 0.112448,0 0.188516,0.07607 0.07607,0.07607 0.07607,0.188516 0,0.112448 -0.07607,0.188515 -0.07607,0.07607 -0.188516,0.07607 z m 0.79375,2.645834 q -0.112448,0 -0.188515,-0.07607 -0.07607,-0.07607 -0.07607,-0.188516 0,-0.112447 0.07607,-0.188515 0.07607,-0.07607 0.188515,-0.07607 0.112448,0 0.188516,0.07607 0.07607,0.07607 0.07607,0.188515 0,0.112448 -0.07607,0.188516 -0.07607,0.07607 -0.188516,0.07607 z m 0.747448,-0.754063 q -0.112448,0 -0.188515,-0.07607 -0.07607,-0.07607 -0.07607,-0.188515 0,-0.112448 0.07607,-0.188516 0.07607,-0.07607 0.188515,-0.07607 0.112448,0 0.188516,0.07607 0.07607,0.07607 0.07607,0.188516 0,0.112447 -0.07607,0.188515 -0.07607,0.07607 -0.188516,0.07607 z m 0.747448,-0.740833 q -0.112448,0 -0.188515,-0.07607 -0.07607,-0.07607 -0.07607,-0.188516 0,-0.112448 0.07607,-0.188515 0.07607,-0.07607 0.188515,-0.07607 0.112448,0 0.188516,0.07607 0.07607,0.07607 0.07607,0.188515 0,0.112448 -0.07607,0.188516 -0.07607,0.07607 -0.188516,0.07607 z m -3.082396,1.494896 q -0.112447,0 -0.188515,-0.07607 -0.07607,-0.07607 -0.07607,-0.188516 0,-0.112447 0.07607,-0.188515 0.07607,-0.07607 0.188515,-0.07607 0.112448,0 0.188516,0.07607 0.07607,0.07607 0.07607,0.188515 0,0.112448 -0.07607,0.188516 -0.07607,0.07607 -0.188516,0.07607 z m -0.747447,-0.754063 q -0.112448,0 -0.188516,-0.07607 -0.07607,-0.07607 -0.07607,-0.188515 0,-0.112448 0.07607,-0.188516 0.07607,-0.07607 0.188516,-0.07607 0.112447,0 0.188515,0.07607 0.07607,0.07607 0.07607,0.188516 0,0.112447 -0.07607,0.188515 -0.07607,0.07607 -0.188515,0.07607 z M 0.88635421,2.2092732 q -0.112448,0 -0.188516,-0.07607 -0.07607,-0.07607 -0.07607,-0.188516 0,-0.112448 0.07607,-0.188515 0.07607,-0.07607 0.188516,-0.07607 0.112447,0 0.18851499,0.07607 0.07607,0.07607 0.07607,0.188515 0,0.112448 -0.07607,0.188516 -0.07607,0.07607 -0.18851499,0.07607 z m 2.02406199,3.611562 v -1.058333 h -1.058333 v -0.529167 h 2.645833 v 0.529167 h -1.058333 v 1.058333 z"
         id="path10"
         style="fill:#ffffff;stroke-width:0.00496093" />
    </g>
  </g>
</svg>
