<?xml version="1.0" encoding="UTF-8" standalone="no"?>
<!-- Created with Inkscape (http://www.inkscape.org/) -->

<svg
   width="32"
   height="32"
   viewBox="0 0 8.4666662 8.4666662"
   version="1.1"
   id="svg1"
   xmlns:inkscape="http://www.inkscape.org/namespaces/inkscape"
   xmlns:sodipodi="http://sodipodi.sourceforge.net/DTD/sodipodi-0.dtd"
   xmlns="http://www.w3.org/2000/svg"
   xmlns:svg="http://www.w3.org/2000/svg">
  <sodipodi:namedview
     id="namedview1"
     pagecolor="#ffffff"
     bordercolor="#111111"
     borderopacity="1"
     inkscape:showpageshadow="0"
     inkscape:pageopacity="0"
     inkscape:pagecheckerboard="1"
     inkscape:deskcolor="#d1d1d1"
     inkscape:document-units="px"
     showguides="true" />
  <defs
     id="defs1" />
  <g
     inkscape:label="Capa 1"
     inkscape:groupmode="layer"
     id="layer1">
    <g
       id="g3"
       transform="scale(1.3333334)"
       style="stroke-width:0.75">
      <rect
         style="fill:#000000;fill-opacity:1;stroke:none;stroke-width:0.198437;stroke-linecap:round;stroke-linejoin:round"
         id="rect1"
         width="6.3499994"
         height="6.3499994"
         x="0"
         y="0" />
      <path
         d="m 2.8045912,5.8208282 q -0.337343,0 -0.51263,-0.201745 -0.175286,-0.201745 -0.175286,-0.459714 0,-0.171979 0.07607,-0.334036 0.07607,-0.162057 0.234817,-0.267891 0.145521,-0.0926 0.234818,-0.238125 0.0893,-0.145521 0.12237,-0.310885 l -0.07938,-0.03969 q -0.03969,-0.01984 -0.07276,-0.0463 l -0.608542,0.218282 q -0.112448,0.03969 -0.218281,0.06615 -0.105833,0.02646 -0.218281,0.02646 -0.416719,0 -0.73752599,-0.363802 -0.320807,-0.363803 -0.320807,-1.064948 0,-0.337344 0.201744,-0.512631 0.201745,-0.175286 0.45309899,-0.175286 0.171979,0 0.337344,0.07607 0.165365,0.07607 0.271198,0.234818 0.0926,0.145521 0.238125,0.234817 0.145521,0.0893 0.310885,0.12237 l 0.03969,-0.07938 q 0.01984,-0.03969 0.0463,-0.07276 l -0.218281,-0.608541 q -0.03969,-0.112448 -0.06615,-0.218281 -0.02646,-0.105834 -0.02646,-0.211667 0,-0.423333 0.363802,-0.74414099 0.363802,-0.320807 1.064948,-0.320807 0.337344,0 0.51263,0.201745 0.175286,0.201745 0.175286,0.45309899 0,0.171979 -0.07607,0.337344 -0.07607,0.165364 -0.234817,0.271198 -0.145521,0.0926 -0.234818,0.238125 -0.0893,0.14552 -0.12237,0.310885 l 0.07937,0.03969 q 0.03969,0.01984 0.07276,0.0463 l 0.608542,-0.224896 q 0.112448,-0.03969 0.214974,-0.06284 0.102526,-0.02315 0.214974,-0.02315 0.535781,0 0.800364,0.443177 0.264584,0.443177 0.264584,0.985573 0,0.337344 -0.211667,0.51263 -0.211667,0.175287 -0.469635,0.175287 -0.165365,0 -0.320808,-0.07607 -0.155442,-0.07607 -0.261276,-0.234818 -0.0926,-0.145521 -0.238125,-0.234817 -0.14552,-0.0893 -0.310885,-0.122371 l -0.03969,0.07938 q -0.01984,0.03969 -0.0463,0.07276 l 0.218282,0.608542 q 0.03969,0.105833 0.06615,0.201745 0.02646,0.09591 0.02646,0.201744 0.0066,0.429948 -0.357188,0.760678 -0.363801,0.330729 -1.071562,0.330729 z m 0.370417,-2.248959 q 0.165365,0 0.28112,-0.115755 0.115755,-0.115755 0.115755,-0.28112 0,-0.165364 -0.115755,-0.281119 -0.115755,-0.115756 -0.28112,-0.115756 -0.165365,0 -0.28112,0.115756 -0.115755,0.115755 -0.115755,0.281119 0,0.165365 0.115755,0.28112 0.115755,0.115755 0.28112,0.115755 z m -0.304271,-1.27 q 0.03969,-0.01323 0.08268,-0.02315 0.043,-0.0099 0.08268,-0.01654 0.05292,-0.277812 0.201745,-0.515937 0.148828,-0.238125 0.393568,-0.396875 0.03307,-0.02646 0.05292,-0.06615 0.01984,-0.03969 0.01984,-0.09922 0,-0.05292 -0.03969,-0.0893 -0.03969,-0.03638 -0.119063,-0.03638 -0.251354,0 -0.568854,0.109141 -0.3175,0.10914 -0.330729,0.42664 0,0.05953 0.01654,0.112448 0.01654,0.05292 0.02977,0.09922 z m -1.283229,1.402292 q 0.0926,0 0.218281,-0.0463 l 0.496094,-0.178594 q -0.01323,-0.03969 -0.02315,-0.08268 -0.0099,-0.04299 -0.01654,-0.08268 -0.277813,-0.05292 -0.515938,-0.201745 -0.238125,-0.148828 -0.396875,-0.393568 -0.02646,-0.03307 -0.06945,-0.05292 -0.04299,-0.01984 -0.09591,-0.01984 -0.05953,0 -0.0926,0.03969 -0.03307,0.03969 -0.03307,0.119063 0,0.357187 0.135599,0.628385 0.135599,0.271198 0.393568,0.271198 z m 1.217083,1.5875 q 0.310886,0 0.611849,-0.125677 0.300964,-0.125677 0.287735,-0.436563 0,-0.05292 -0.01654,-0.09922 -0.01654,-0.0463 -0.02977,-0.08599 l -0.178593,-0.496094 q -0.03969,0.01323 -0.08268,0.02315 -0.04299,0.0099 -0.08268,0.01654 -0.05292,0.277812 -0.201745,0.515937 -0.148828,0.238125 -0.393568,0.396875 -0.03307,0.02646 -0.05622,0.06945 -0.02315,0.04299 -0.01654,0.0893 0.0066,0.05292 0.03969,0.09261 0.03307,0.03969 0.119062,0.03969 z m 2.334948,-1.5875 q 0.05953,0 0.105833,-0.03307 0.0463,-0.03307 0.0463,-0.125677 0,-0.251354 -0.105833,-0.572161 -0.105833,-0.320808 -0.429948,-0.327422 -0.05953,0 -0.112448,0.01323 -0.05292,0.01323 -0.09922,0.02646 l -0.496093,0.185209 q 0.01323,0.03969 0.02315,0.08268 0.0099,0.04299 0.01654,0.08268 0.277812,0.05292 0.515937,0.201744 0.238125,0.148828 0.396875,0.393568 0.01984,0.03307 0.05953,0.05292 0.03969,0.01984 0.07938,0.01984 z m -1.051719,-0.668073 z m -1.051718,-0.773906 z m -0.773906,1.051719 z m 1.051718,0.773906 z"
         id="path13"
         style="fill:#ffffff;stroke-width:0.00496093" />
    </g>
  </g>
</svg>
