#define grass24_width 24
#define grass24_height 24
static unsigned char grass24_bits[] = {
   0x00, 0x00, 0x00, 0x00, 0x00, 0x00, 0x00, 0x00, 0x00, 0x00, 0x00, 0x00,
   0x00, 0x00, 0x00, 0x00, 0x01, 0x00, 0x00, 0x03, 0x06, 0x00, 0x86, 0x03,
   0x00, 0xc6, 0x01, 0x00, 0xe6, 0x00, 0x00, 0xe6, 0x00, 0x00, 0x72, 0x00,
   0x78, 0x10, 0x1e, 0xe0, 0x81, 0x07, 0xc0, 0xc3, 0x03, 0x80, 0xe7, 0x01,
   0x80, 0xe7, 0x01, 0x00, 0xcf, 0x00, 0xfc, 0xcf, 0x3f, 0xfc, 0xcf, 0x3f,
   0x00, 0x00, 0x00, 0x00, 0x00, 0x00, 0x00, 0x00, 0x00, 0x00, 0x00, 0x00 };
